<?xml version="1.0" encoding="UTF-8" standalone="no"?><svg xmlns="http://www.w3.org/2000/svg" xmlns:xlink="http://www.w3.org/1999/xlink" fill="#000000" height="717.6" preserveAspectRatio="xMidYMid meet" version="1" viewBox="29.9 47.3 525.9 717.6" width="525.9" zoomAndPan="magnify"><g fill="#f4f1e8" id="change1_1"><path d="m551.31 285.03c1.841 23.88-21.109 44.3-43.109 50.84-4.561-4.07-8.23-9.31-13.44-12.54 16.351-7.45 36.98-16.5 39.65-37.17 5.599-0.66 11.209-1.01 16.899-1.13z" fill="inherit"/><path d="m551.31 285.03c-5.689 0.12-11.3 0.47-16.899 1.13-7.34-16.63-28.271-19.18-41.22-28.39 4.59-1.91 6.369-7.22 10.359-9.68 20.01 4.36 37.69 19.68 47.76 36.94z" fill="inherit"/><path d="m494.76 323.33c5.21 3.23 8.88 8.47 13.44 12.54-4.13 18.3-14.641 36.96-32.141 45.35-2.55-6.44-0.43-13.96-1.8-20.72 10.951-9.71 16.011-23.99 20.501-37.17z" fill="inherit"/><path d="m503.55 248.09c-3.99 2.46-5.77 7.77-10.359 9.68-1.181-16.4-6.551-37.38-24.78-42.12 0.479-4.32-1.601-8.05-0.91-12.39 20.939 3.32 35.679 24.34 36.049 44.83z" fill="inherit"/><path d="m474.26 360.5c1.37 6.76-0.75 14.28 1.8 20.72-28.739-17.75-64.689-27.64-99.42-20.12-4.85-5.62-9.39-11.49-14.34-17.05 36.87-12.82 79.2-3.9 111.96 16.45z" fill="inherit"/><path d="m467.5 203.26c-0.69 4.34 1.39 8.07 0.91 12.39-25.141 31.31-65.53 58.47-107.01 49.56 3.64-4.08 7.369-8.15 10.14-12.84 38.42 0.96 68.48-26.57 95.96-49.11z" fill="inherit"/><path d="m404.88 668.68c-5.74 1.141-11.78-0.109-17.57 0.67-2.05-0.89-6.829-2.13-10.359-3.79-57.561-27.01-55.151-102.66-52.051-166.69 1.97-40.75 0.09-87.07 4.06-118.77 3.93 5.46 9.58 9.67 13.51 15.09-0.45 77.74-9.41 174.58 10.63 219.43 9.85 22.05 32.4 41.78 51.78 54.06z" fill="inherit"/><path d="m387.31 669.35c5.79-0.779 11.83 0.471 17.57-0.67-1.89 29.17-29.29 49.79-54.07 61.271-1.96-4.97-4.949-9.41-8.71-13.21 17.89-11.871 36.52-26.791 45.21-47.391z" fill="inherit"/><path d="m376.64 361.1c-3.04 9.13-2.149 19.29-5.1 28.23-5.2-3.4-8.05-9.65-12.39-13.96 1.02-10.32-0.931-21.96 3.149-31.32 4.951 5.56 9.491 11.43 14.341 17.05z" fill="inherit"/><path d="m369.73 219.93c1.27 10.72-0.65 21.88 1.81 32.44-2.771 4.69-6.5 8.76-10.14 12.84-4.17-9.95 0.34-22.96-0.45-34.02 3.09-3.59 4.63-8.85 8.78-11.26z" fill="inherit"/><path d="m376.04 141.53c-4.83-0.74-9.8-0.55-14.64-1.35-5.141-16.34-23.25-21.74-36.721-28.39 3.551-3.2 6.521-6.99 10.36-9.68 18.721 4.87 37.061 20.89 41.001 39.42z" fill="inherit"/><path d="m361.4 140.18c4.84 0.8 9.81 0.61 14.64 1.35-20.25 20.49-44.29 44.85-43.25 75.69-3.83 4.93-8.37 9.29-12.84 13.74-8.79-34.5 21.18-65.68 41.45-90.78z" fill="inherit"/><path d="m359.15 375.37c4.34 4.31 7.189 10.56 12.39 13.96-6.96 5.31-19.81 2.95-29.07 5.86-3.93-5.42-9.58-9.63-13.51-15.09 9.22-3.91 20.37-2.09 30.19-4.73z" fill="inherit"/><path d="m369.73 219.93c-4.15 2.41-5.69 7.67-8.78 11.26-13.75-1.22-27.86 3.07-41-0.23 4.47-4.45 9.01-8.81 12.84-13.74 11.72 2.5 27.57-2.79 36.94 2.71z" fill="inherit"/><path d="m342.1 716.74c3.761 3.8 6.75 8.24 8.71 13.21-26.43 32.609-90.859 33.05-116.84-0.3 3.22-3.881 5.37-8.511 8.71-12.311 13.059 26.251 86.199 26.871 99.419-0.599z" fill="inherit"/><path d="m335.04 102.11c-3.84 2.69-6.81 6.48-10.36 9.68-9.43-12.83-12.83-36.48-32.439-40.55v-21.17c23.329 5.47 36.649 30.48 42.799 52.04z" fill="inherit"/><path d="m292.24 50.07v21.17c-18.96 4.54-23.22 26.24-31.54 40.55-3.84-3.16-7.42-6.66-11.41-9.61 6.82-21.39 19.41-46.61 42.95-52.11z" fill="inherit"/><path d="m223.15 140.93c21.25 24.37 49.9 55.69 41.6 90.26-4.4-4.45-9.03-8.73-12.76-13.67 1.07-31.15-23.15-55.05-42.88-75.77 4.4-1.56 9.43-0.1 14.04-0.82z" fill="inherit"/><path d="m251.99 217.52c3.73 4.94 8.36 9.22 12.76 13.67-13.47 2.87-27.52-1.21-41.3 0.15-2.66-4.02-5-8.28-8.26-11.86 10.47-4.24 24.85-0.46 36.8-1.96z" fill="inherit"/><path d="m256.19 380.32c1.58 81.541 15.32 200.44-12.99 250.48-12.85 22.71-29.05 32.82-45.58 38.78-5.37-1.04-11.19-0.49-16.22-2.7 96.54-54.7 54.07-180.45 60.68-271.54 4.73-4.95 8.94-10.53 14.11-15.02z" fill="inherit"/><path d="m249.29 102.18c3.99 2.95 7.57 6.45 11.41 9.61-13.93 6.26-32.94 12.22-37.55 29.14-4.61 0.72-9.64-0.74-14.04 0.82 2.17-17.93 21.96-34.71 40.18-39.57z" fill="inherit"/><path d="m256.19 380.32c-5.17 4.49-9.38 10.07-14.11 15.02-9.22-2.98-20.83-1.03-28.69-5.55 4.33-4.55 8.29-9.36 11.94-14.42 9.93 2.73 22 0.6 30.86 4.95z" fill="inherit"/><path d="m242.68 717.34c-3.34 3.8-5.49 8.43-8.71 12.311-10.06-3.561-24.45-12.69-34.35-22.44-11.3-11.13-22.92-27.25-18.22-40.33 5.03 2.21 10.85 1.66 16.22 2.7 8.2 21.059 27.94 35.009 45.06 47.759z" fill="inherit"/><path d="m222.18 344.05c4.56 9 2.03 21.05 3.15 31.32-3.65 5.06-7.61 9.87-11.94 14.42-3.61-9.01-2.05-19.4-5.41-28.62 4.95-5.16 9.7-11.27 14.2-17.12z" fill="inherit"/><path d="m223.45 231.34c0.05 10.99 3.23 23.17 0.3 33.64-3.45-4.4-8-8.06-10.58-13.06 2.71-10.53-0.46-22.06 2.02-32.44 3.26 3.58 5.6 7.84 8.26 11.86z" fill="inherit"/><path d="m213.17 251.92c2.58 5 7.13 8.66 10.58 13.06-41.35 9.64-82.31-18.13-107.68-49.33 0.46-4.12 1.17-8.19 0.9-12.39 27.51 21.98 57.8 50.85 96.2 48.66z" fill="inherit"/><path d="m222.18 344.05c-4.5 5.85-9.25 11.96-14.2 17.12-34.28-7.43-70.35 1.79-98.67 20.05 1.03-6.81 0-13.89 0.9-20.72 32.74-20.05 75.38-29.43 111.97-16.45z" fill="inherit"/><path d="m116.97 203.26c0.27 4.2-0.44 8.27-0.9 12.39-18.49 4.74-22.92 25.84-24.78 42.12-4.57-1.91-6.5-7.14-10.36-9.68 0.89-20.46 15.1-41.41 36.04-44.83z" fill="inherit"/><path d="m110.21 360.5c-0.9 6.83 0.13 13.91-0.9 20.72-18.12-7.5-28.4-26.91-32.89-45.28 4.97-3.44 8.79-8.51 13.29-12.61 4.99 13.04 9.66 27.34 20.5 37.17z" fill="inherit"/><path d="m80.93 248.09c3.86 2.54 5.79 7.77 10.36 9.68-12.93 9.31-33.69 11.85-41.23 28.39-5.76-0.26-11.67 0.54-17.34-0.45 10.32-17.58 27.85-33.03 48.21-37.62z" fill="inherit"/><path d="m89.71 323.33c-4.5 4.1-8.32 9.17-13.29 12.61-22.08-6.86-43.51-25.98-43.7-50.23 5.67 0.99 11.58 0.19 17.34 0.45 2.93 20.47 23.26 29.69 39.65 37.17z" fill="inherit"/></g><g fill="none" stroke="#ffffff" stroke-linecap="round" stroke-width="5"><path d="m493.19 257.77c-1.181-16.4-6.551-37.38-24.78-42.12"/><path d="m503.55 248.09c-3.99 2.46-5.77 7.77-10.359 9.68"/><path d="m467.5 203.26c20.94 3.32 35.68 24.34 36.05 44.83"/><path d="m467.5 203.26c-0.69 4.34 1.39 8.07 0.91 12.39"/><path d="m361.4 265.21c41.479 8.91 81.869-18.25 107.01-49.56"/><path d="m534.41 286.16c-7.34-16.63-28.271-19.18-41.22-28.39"/><path d="m551.31 285.03c-5.689 0.12-11.3 0.47-16.899 1.13"/><path d="m551.31 285.03c-10.069-17.26-27.75-32.58-47.76-36.94"/><path d="m371.54 252.37c38.42 0.96 68.479-26.57 95.96-49.11"/><path d="m371.54 252.37c-2.771 4.69-6.5 8.76-10.14 12.84"/><path d="m360.95 231.19c0.79 11.06-3.72 24.07 0.45 34.02"/><path d="m494.76 323.33c16.351-7.45 36.98-16.5 39.65-37.17"/><path d="m508.2 335.87c-4.561-4.07-8.23-9.31-13.44-12.54"/><path d="m508.2 335.87c22-6.54 44.95-26.96 43.109-50.84"/><path d="m369.73 219.93c1.27 10.72-0.65 21.88 1.81 32.44"/><path d="m369.73 219.93c-4.15 2.41-5.69 7.67-8.78 11.26"/><path d="m319.95 230.96c13.14 3.3 27.25-0.99 41 0.23"/><path d="m474.26 360.5c10.95-9.71 16.01-23.99 20.5-37.17"/><path d="m476.06 381.22c-2.55-6.44-0.43-13.96-1.8-20.72"/><path d="m476.06 381.22c17.5-8.39 28.011-27.05 32.141-45.35"/><path d="m332.79 217.22c11.72 2.5 27.57-2.79 36.94 2.71"/><path d="m332.79 217.22c-3.83 4.93-8.37 9.29-12.84 13.74"/><path d="m361.4 140.18c-20.271 25.1-50.24 56.28-41.45 90.78"/><path d="m362.3 344.05c36.87-12.82 79.2-3.9 111.96 16.45"/><path d="m376.64 361.1c-4.85-5.62-9.39-11.49-14.34-17.05"/><path d="m376.64 361.1c34.73-7.52 70.681 2.37 99.42 20.12"/><path d="m376.04 141.53c-20.25 20.49-44.29 44.85-43.25 75.69"/><path d="m376.04 141.53c-4.83-0.74-9.8-0.55-14.64-1.35"/><path d="m324.68 111.79c13.471 6.65 31.58 12.05 36.721 28.39"/><path d="m359.15 375.37c1.02-10.32-0.931-21.96 3.149-31.32"/><path d="m371.54 389.33c2.95-8.94 2.06-19.1 5.1-28.23"/><path d="m371.54 389.33c-5.2-3.4-8.05-9.65-12.39-13.96"/><path d="m335.04 102.11c18.72 4.87 37.06 20.89 41 39.42"/><path d="m335.04 102.11c-3.84 2.69-6.81 6.48-10.36 9.68"/><path d="m292.24 71.24c19.609 4.07 23.01 27.72 32.439 40.55"/><path d="m328.96 380.1c9.22-3.91 20.37-2.09 30.19-4.73"/><path d="m342.47 395.19c-3.93-5.42-9.58-9.63-13.51-15.09"/><path d="m342.47 395.19c9.261-2.91 22.11-0.55 29.07-5.86"/><path d="m292.24 50.07c23.33 5.47 36.649 30.48 42.8 52.04"/><path d="m292.24 50.07v21.17"/><path d="m260.7 111.79c8.32-14.31 12.58-36.01 31.54-40.55"/><path d="m387.31 669.35c-2.05-0.89-6.829-2.13-10.359-3.79-57.561-27.01-55.151-102.66-52.051-166.69 1.97-40.75 0.09-87.07 4.06-118.77"/><path d="m404.88 668.68c-5.74 1.141-11.78-0.109-17.57 0.67"/><path d="m404.88 668.68c-19.38-12.279-41.93-32.01-51.78-54.06-20.04-44.851-11.08-141.69-10.63-219.43"/><path d="m249.29 102.18c3.99 2.95 7.57 6.45 11.41 9.61"/><path d="m249.29 102.18c6.82-21.39 19.41-46.61 42.95-52.11"/><path d="m223.15 140.93c4.61-16.92 23.62-22.88 37.55-29.14"/><path d="m342.1 716.74c17.891-11.87 36.521-26.79 45.21-47.391"/><path d="m350.81 729.95c-1.96-4.97-4.949-9.41-8.71-13.21"/><path d="m350.81 729.95c24.78-11.48 52.181-32.101 54.07-61.271"/><path d="m209.11 141.75c2.17-17.93 21.96-34.71 40.18-39.57"/><path d="m209.11 141.75c4.4-1.56 9.43-0.1 14.04-0.82"/><path d="m264.75 231.19c8.3-34.57-20.35-65.89-41.6-90.26"/><path d="m242.68 717.34c13.06 26.25 86.2 26.87 99.419-0.6"/><path d="m233.97 729.65c3.22-3.881 5.37-8.511 8.71-12.311"/><path d="m233.97 729.65c25.98 33.35 90.41 32.909 116.84 0.3"/><path d="m251.99 217.52c3.73 4.94 8.36 9.22 12.76 13.67"/><path d="m251.99 217.52c1.07-31.15-23.15-55.05-42.88-75.77"/><path d="m223.45 231.34c13.78-1.36 27.83 2.72 41.3-0.15"/><path d="m197.62 669.58c8.2 21.06 27.94 35.01 45.06 47.76"/><path d="m181.4 666.88c5.03 2.21 10.85 1.66 16.22 2.7"/><path d="m181.4 666.88c-4.7 13.08 6.92 29.2 18.22 40.33 9.9 9.75 24.29 18.88 34.35 22.44"/><path d="m215.19 219.48c10.47-4.24 24.85-0.46 36.8-1.96"/><path d="m215.19 219.48c3.26 3.58 5.6 7.84 8.26 11.86"/><path d="m223.75 264.98c2.93-10.47-0.25-22.65-0.3-33.64"/><path d="m256.19 380.32c1.58 81.541 15.32 200.44-12.99 250.48-12.85 22.71-29.05 32.82-45.58 38.78"/><path d="m242.08 395.34c4.73-4.95 8.94-10.53 14.11-15.02"/><path d="m242.08 395.34c-6.61 91.09 35.86 216.84-60.68 271.54"/><path d="m213.17 251.92c2.58 5 7.13 8.66 10.58 13.06"/><path d="m213.17 251.92c2.71-10.53-0.46-22.06 2.02-32.44"/><path d="m116.07 215.65c25.37 31.2 66.33 58.97 107.68 49.33"/><path d="m225.33 375.37c9.93 2.73 22 0.6 30.86 4.95"/><path d="m213.39 389.79c4.33-4.55 8.29-9.36 11.94-14.42"/><path d="m213.39 389.79c7.86 4.52 19.47 2.57 28.69 5.55"/><path d="m116.97 203.26c27.51 21.98 57.8 50.85 96.2 48.66"/><path d="m116.97 203.26c0.27 4.2-0.44 8.27-0.9 12.39"/><path d="m91.29 257.77c1.86-16.28 6.29-37.38 24.78-42.12"/><path d="m222.18 344.05c4.56 9 2.03 21.05 3.15 31.32"/><path d="m207.98 361.17c4.95-5.16 9.7-11.27 14.2-17.12"/><path d="m207.98 361.17c3.36 9.22 1.8 19.61 5.41 28.62"/><path d="m80.93 248.09c0.89-20.46 15.1-41.41 36.04-44.83"/><path d="m80.93 248.09c3.86 2.54 5.79 7.77 10.36 9.68"/><path d="m50.06 286.16c7.54-16.54 28.3-19.08 41.23-28.39"/><path d="m110.21 360.5c32.74-20.05 75.38-29.43 111.97-16.45"/><path d="m109.31 381.22c1.03-6.81 0-13.89 0.9-20.72"/><path d="m109.31 381.22c28.32-18.26 64.39-27.48 98.67-20.05"/><path d="m32.72 285.71c5.67 0.99 11.58 0.19 17.34 0.45"/><path d="m32.72 285.71c10.32-17.58 27.85-33.03 48.21-37.62"/><path d="m89.71 323.33c-16.39-7.48-36.72-16.7-39.65-37.17"/><path d="m89.71 323.33c4.99 13.04 9.66 27.34 20.5 37.17"/><path d="m76.42 335.94c4.49 18.37 14.77 37.78 32.89 45.28"/><path d="m76.42 335.94c-22.08-6.86-43.51-25.98-43.7-50.23"/><path d="m76.42 335.94c4.97-3.44 8.79-8.51 13.29-12.61"/></g></svg>