<?xml version="1.0" encoding="UTF-8" standalone="no"?><svg xmlns="http://www.w3.org/2000/svg" xmlns:xlink="http://www.w3.org/1999/xlink" fill="#f4f1e8" height="387.7" preserveAspectRatio="xMidYMid meet" version="1" viewBox="0.0 0.0 400.0 387.7" width="400" zoomAndPan="magnify"><g id="change1_1"><path d="M138.29,167.48c0,3.93-3.18,7.11-7.11,7.11h-29.33c-3.93,0-7.11-3.18-7.11-7.11v-8.71c0-3.43,2.78-6.21,6.21-6.21h31.11 c3.43,0,6.21,2.78,6.21,6.21V167.48z M122.23,325.59c3.02,0,5.48-2.46,5.48-5.48V188.11c0-3.02-2.46-5.48-5.48-5.48H110.8 c-3.02,0-5.48,2.46-5.48,5.48V320.1c0,3.02,2.46,5.48,5.48,5.48H122.23z M94.75,349.44c0,3.43,2.78,6.21,6.21,6.21h31.11 c3.43,0,6.21-2.78,6.21-6.21v-8.5c0-4.04-3.28-7.32-7.32-7.32h-28.91c-4.04,0-7.32,3.28-7.32,7.32V349.44z M221.77,158.77 c0-3.43-2.78-6.21-6.21-6.21h-31.11c-3.43,0-6.21,2.78-6.21,6.21v8.71c0,3.93,3.18,7.11,7.11,7.11h29.33c3.93,0,7.11-3.18,7.11-7.11 V158.77z M205.71,325.59c3.02,0,5.48-2.46,5.48-5.48V188.11c0-3.02-2.46-5.48-5.48-5.48h-11.43c-3.02,0-5.48,2.46-5.48,5.48V320.1 c0,3.02,2.46,5.48,5.48,5.48H205.71z M178.23,349.44c0,3.43,2.78,6.21,6.21,6.21h31.11c3.43,0,6.21-2.78,6.21-6.21v-8.5 c0-4.04-3.28-7.32-7.32-7.32h-28.91c-4.04,0-7.32,3.28-7.32,7.32V349.44z M305.25,158.77c0-3.43-2.78-6.21-6.21-6.21h-31.11 c-3.43,0-6.21,2.78-6.21,6.21v8.71c0,3.93,3.18,7.11,7.11,7.11h29.33c3.93,0,7.11-3.18,7.11-7.11V158.77z M289.2,325.59 c3.02,0,5.48-2.46,5.48-5.48V188.11c0-3.02-2.46-5.48-5.48-5.48h-11.43c-3.02,0-5.48,2.46-5.48,5.48V320.1 c0,3.02,2.46,5.48,5.48,5.48H289.2z M261.71,349.44c0,3.43,2.78,6.21,6.21,6.21h31.11c3.43,0,6.21-2.78,6.21-6.21v-8.5 c0-4.04-3.28-7.32-7.32-7.32h-28.91c-4.04,0-7.32,3.28-7.32,7.32V349.44z M382.81,158.77c0-3.43-2.78-6.21-6.21-6.21h-31.11 c-3.43,0-6.21,2.78-6.21,6.21v8.71c0,3.93,3.18,7.11,7.11,7.11h29.32c3.93,0,7.11-3.18,7.11-7.11V158.77z M366.75,325.59 c3.02,0,5.48-2.46,5.48-5.48V188.11c0-3.02-2.46-5.48-5.48-5.48h-11.43c-3.02,0-5.48,2.46-5.48,5.48V320.1 c0,3.02,2.46,5.48,5.48,5.48H366.75z M339.27,349.44c0,3.43,2.78,6.21,6.21,6.21h31.11c3.43,0,6.21-2.78,6.21-6.21v-8.5 c0-4.04-3.28-7.32-7.32-7.32h-28.91c-4.04,0-7.32,3.28-7.32,7.32V349.44z M182.95,18.73c1.25,0.95,2.84,1.24,4.35,0.81l11.32-3.22 c0.9-0.25,1.85-0.25,2.75,0l14.33,4.08c0.45,0.13,0.92,0.19,1.37,0.19c1.06,0,2.1-0.34,2.98-1.01c1.25-0.95,1.97-2.39,1.97-3.96 V4.96c0-2.74-2.23-4.96-4.96-4.96h-31.11c-2.74,0-4.96,2.23-4.96,4.96v9.81C180.98,16.34,181.7,17.78,182.95,18.73z M394.97,82.86 L201.9,27.92c-1.24-0.35-2.55-0.35-3.79,0L5.03,82.86C2.07,83.71,0,86.45,0,89.53v10.41c0,2.19,1,4.21,2.75,5.53 c1.75,1.32,3.96,1.73,6.07,1.13l189.81-54.01c0.9-0.26,1.85-0.26,2.75,0l189.81,54.01c0.63,0.18,1.28,0.27,1.91,0.27 c1.48,0,2.93-0.48,4.15-1.4c1.75-1.32,2.75-3.34,2.75-5.53V89.53C400,86.45,397.93,83.71,394.97,82.86z M91.17,93.6l-28.8,8.2 c-2.17,0.62-3.46,2.61-3.15,4.84c0.31,2.23,2.1,3.79,4.36,3.79h272.85c2.25,0,4.05-1.56,4.36-3.79c0.31-2.23-0.99-4.22-3.15-4.84 l-28.8-8.19c-0.39-0.11-0.8-0.17-1.2-0.17H92.37C91.96,93.43,91.56,93.49,91.17,93.6z M11.99,126.29v10.4 c0,3.21,2.61,5.81,5.81,5.81H382.2c3.21,0,5.81-2.61,5.81-5.81v-10.4c0-3.21-2.61-5.81-5.81-5.81H17.8 C14.6,120.48,11.99,123.09,11.99,126.29z M148.16,83.38h103.68c1.48,0,2.71-1.07,2.91-2.53c0.21-1.47-0.68-2.83-2.11-3.24 l-51.84-14.75c-0.53-0.15-1.08-0.15-1.61,0l-51.84,14.75c-1.43,0.41-2.31,1.77-2.11,3.24S146.68,83.38,148.16,83.38z M60.73,158.77 c0-3.43-2.78-6.21-6.21-6.21H23.4c-3.43,0-6.21,2.78-6.21,6.21v8.71c0,3.93,3.18,7.11,7.11,7.11h29.33c3.93,0,7.11-3.18,7.11-7.11 V158.77z M44.67,325.59c3.02,0,5.48-2.46,5.48-5.48V188.11c0-3.02-2.46-5.48-5.48-5.48H33.24c-3.02,0-5.48,2.46-5.48,5.48V320.1 c0,3.02,2.46,5.48,5.48,5.48H44.67z M17.19,349.44c0,3.43,2.78,6.21,6.21,6.21h31.11c3.43,0,6.21-2.78,6.21-6.21v-8.5 c0-4.04-3.28-7.32-7.32-7.32H24.5c-4.04,0-7.32,3.28-7.32,7.32V349.44z M393.08,365.71H6.92c-3.82,0-6.92,3.1-6.92,6.92v8.19 c0,3.82,3.1,6.92,6.92,6.92h386.16c3.82,0,6.92-3.1,6.92-6.92v-8.19C400,368.81,396.9,365.71,393.08,365.71z"/></g></svg>