<?xml version="1.0" encoding="UTF-8" standalone="no"?><svg xmlns="http://www.w3.org/2000/svg" xmlns:xlink="http://www.w3.org/1999/xlink" fill="#000000" height="854.2" preserveAspectRatio="xMidYMid meet" version="1" viewBox="112.9 112.9 854.2 854.2" width="854.2" zoomAndPan="magnify"><g><g id="change1_1"><path d="M889.66,508.83l-48.97-48.98l-79.93-79.93h114l-0.01-109.19H695.93l-113.04-0.01l80.61-80.61l-77.22-77.21 l-77.46,77.45l-48.97,48.97l-79.93,79.93v-114l-109.19,0.01v178.8l-0.01,113.05L190.1,416.5l-77.21,77.22l77.45,77.46 l128.91,128.91h-114l0.01,109.19h178.81l113.04,0.01L416.5,889.9l77.22,77.21l77.46-77.45l48.97-48.97l79.93-79.93v114 l109.19-0.01V695.93l0.01-113.04l80.61,80.61l77.21-77.22L889.66,508.83z M700.08,606.32l-93.77,93.77H473.68l-93.77-93.77V473.68 l93.77-93.77h132.63l93.77,93.77V606.32z" fill="#f4f1e8"/></g></g></svg>